<svg width="14" height="14" viewBox="0 0 14 14" fill="none" xmlns="http://www.w3.org/2000/svg">
<path d="M13.7909 12.7812L10.8266 9.62033C11.6218 8.60859 12.0967 7.33373 12.0967 5.95001C12.0967 2.66914 9.4275 0 6.14663 0C2.8658 0 0.196655 2.66914 0.196655 5.94996C0.196655 9.23079 2.8658 11.8999 6.14663 11.8999C7.5303 11.8999 8.80521 11.4251 9.81695 10.63L12.7812 13.7909C12.9206 13.9303 13.1033 14 13.2861 14C13.4688 14 13.6515 13.9303 13.7909 13.7909C14.0697 13.5121 14.0697 13.06 13.7909 12.7812ZM1.62459 5.94996C1.62459 3.45651 3.65317 1.42793 6.14663 1.42793C8.64009 1.42793 10.6687 3.45651 10.6687 5.94996C10.6687 8.44342 8.64009 10.472 6.14663 10.472C3.65317 10.472 1.62459 8.44342 1.62459 5.94996Z" fill="url(#paint0_linear_4_43)"/>
<defs>
<linearGradient id="paint0_linear_4_43" x1="0.196656" y1="-0.0308184" x2="16.551" y2="4.27093" gradientUnits="userSpaceOnUse">
<stop stop-color="#38B6FF"/>
<stop offset="1" stop-color="#38FFDB"/>
</linearGradient>
</defs>
</svg>
