<svg width="28" height="23" viewBox="0 0 28 23" fill="none" xmlns="http://www.w3.org/2000/svg">
<path d="M27.5001 3.38718C26.5078 3.82668 25.4406 4.11993 24.3148 4.25868C25.4593 3.57918 26.3398 2.49543 26.7531 1.21518C25.6821 1.84293 24.4956 2.30418 23.2333 2.54718C22.2253 1.47843 20.7876 0.81543 19.1946 0.81543C16.1346 0.81543 13.6543 3.27393 13.6543 6.30543C13.6543 6.73443 13.7046 7.15218 13.7991 7.55793C9.19555 7.32693 5.11255 5.13843 2.38105 1.81743C1.90105 2.62893 1.63105 3.57918 1.63105 4.58193C1.63105 6.48768 2.6068 8.16543 4.0948 9.15393C3.18655 9.12618 2.33155 8.87343 1.58305 8.46843C1.58305 8.48493 1.58305 8.50968 1.58305 8.53293C1.58305 11.1962 3.4933 13.4139 6.0253 13.9187C5.56255 14.0454 5.07355 14.1159 4.56955 14.1159C4.2118 14.1159 3.86305 14.0754 3.52555 14.0147C4.23055 16.1912 6.2758 17.7819 8.69905 17.8292C6.80305 19.2992 4.41505 20.1797 1.81855 20.1797C1.37005 20.1797 0.931303 20.1542 0.497803 20.1017C2.95105 21.6549 5.86405 22.5654 8.9908 22.5654C19.1796 22.5654 24.7536 14.1984 24.7536 6.93993C24.7536 6.70218 24.7461 6.46518 24.7348 6.23118C25.8223 5.46318 26.7598 4.49418 27.5001 3.38718Z" fill="white"/>
</svg>
