<svg width="28" height="24" viewBox="0 0 28 24" fill="none" xmlns="http://www.w3.org/2000/svg">
<path d="M14 0.332031C9.5349 0.332031 3.73955 1.45078 3.73955 1.45078L3.72497 1.46745C1.69134 1.79269 0.133301 3.54016 0.133301 5.66536V12.0654V12.0674V18.4654V18.4674C0.135285 19.4824 0.499029 20.4634 1.15922 21.2344C1.81941 22.0053 2.7328 22.5156 3.73538 22.6737L3.73955 22.6799C3.73955 22.6799 9.5349 23.8008 14 23.8008C18.465 23.8008 24.2604 22.6799 24.2604 22.6799L24.2625 22.6779C25.2661 22.5201 26.1806 22.0094 26.8413 21.2375C27.502 20.4657 27.8656 19.4834 27.8666 18.4674V18.4654V12.0674V12.0654V5.66536C27.8651 4.65003 27.5016 3.66851 26.8414 2.89716C26.1812 2.12581 25.2675 1.61518 24.2646 1.45703L24.2604 1.45078C24.2604 1.45078 18.465 0.332031 14 0.332031ZM10.8 7.15703L19.3333 12.0654L10.8 16.9737V7.15703Z" fill="white"/>
</svg>
